TITLE ""
FILE "P1Q_t_1149-1158.mp3" MP3
  TRACK 01 AUDIO
    TITLE "P1Q_t_1149-1158_01"
    INDEX 01 00:00:00
  TRACK 02 AUDIO
    TITLE "P1Q_t_1149-1158_02"
    INDEX 01 00:01:22
  TRACK 03 AUDIO
    TITLE "P1Q_t_1149-1158_03"
    INDEX 01 00:01:41
  TRACK 04 AUDIO
    TITLE "P1Q_t_1149-1158_04"
    INDEX 01 00:03:36
  TRACK 05 AUDIO
    TITLE "P1Q_t_1149-1158_05"
    INDEX 01 00:03:56
  TRACK 06 AUDIO
    TITLE "P1Q_t_1149-1158_06"
    INDEX 01 00:06:60
  TRACK 07 AUDIO
    TITLE "P1Q_t_1149-1158_07"
    INDEX 01 00:07:30
  TRACK 08 AUDIO
    TITLE "P1Q_t_1149-1158_08"
    INDEX 01 00:08:55
  TRACK 09 AUDIO
    TITLE "P1Q_t_1149-1158_09"
    INDEX 01 00:09:03
  TRACK 10 AUDIO
    TITLE "P1Q_t_1149-1158_10"
    INDEX 01 00:11:20
  TRACK 11 AUDIO
    TITLE "P1Q_t_1149-1158_11"
    INDEX 01 00:11:39
  TRACK 12 AUDIO
    TITLE "P1Q_t_1149-1158_12"
    INDEX 01 00:15:49
  TRACK 13 AUDIO
    TITLE "P1Q_t_1149-1158_13"
    INDEX 01 00:16:19
  TRACK 14 AUDIO
    TITLE "P1Q_t_1149-1158_14"
    INDEX 01 00:17:21
  TRACK 15 AUDIO
    TITLE "P1Q_t_1149-1158_15"
    INDEX 01 00:17:42
  TRACK 16 AUDIO
    TITLE "P1Q_t_1149-1158_16"
    INDEX 01 00:22:71
  TRACK 17 AUDIO
    TITLE "P1Q_t_1149-1158_17"
    INDEX 01 00:23:15
  TRACK 18 AUDIO
    TITLE "P1Q_t_1149-1158_18"
    INDEX 01 00:27:66
  TRACK 19 AUDIO
    TITLE "P1Q_t_1149-1158_19"
    INDEX 01 00:28:38
  TRACK 20 AUDIO
    TITLE "P1Q_t_1149-1158_20"
    INDEX 01 00:29:53
  TRACK 21 AUDIO
    TITLE "P1Q_t_1149-1158_21"
    INDEX 01 00:30:00
  TRACK 22 AUDIO
    TITLE "P1Q_t_1149-1158_22"
    INDEX 01 00:31:70
  TRACK 23 AUDIO
    TITLE "P1Q_t_1149-1158_23"
    INDEX 01 00:32:14
  TRACK 24 AUDIO
    TITLE "P1Q_t_1149-1158_24"
    INDEX 01 00:35:64
  TRACK 25 AUDIO
    TITLE "P1Q_t_1149-1158_25"
    INDEX 01 00:36:32
  TRACK 26 AUDIO
    TITLE "P1Q_t_1149-1158_26"
    INDEX 01 00:37:62
  TRACK 27 AUDIO
    TITLE "P1Q_t_1149-1158_27"
    INDEX 01 00:38:09
  TRACK 28 AUDIO
    TITLE "P1Q_t_1149-1158_28"
    INDEX 01 00:39:69
  TRACK 29 AUDIO
    TITLE "P1Q_t_1149-1158_29"
    INDEX 01 00:40:14
  TRACK 30 AUDIO
    TITLE "P1Q_t_1149-1158_30"
    INDEX 01 00:44:60
  TRACK 31 AUDIO
    TITLE "P1Q_t_1149-1158_31"
    INDEX 01 00:45:31
  TRACK 32 AUDIO
    TITLE "P1Q_t_1149-1158_32"
    INDEX 01 00:46:40
  TRACK 33 AUDIO
    TITLE "P1Q_t_1149-1158_33"
    INDEX 01 00:46:61
  TRACK 34 AUDIO
    TITLE "P1Q_t_1149-1158_34"
    INDEX 01 00:49:44
  TRACK 35 AUDIO
    TITLE "P1Q_t_1149-1158_35"
    INDEX 01 00:49:62
  TRACK 36 AUDIO
    TITLE "P1Q_t_1149-1158_36"
    INDEX 01 00:55:03
  TRACK 37 AUDIO
    TITLE "P1Q_t_1149-1158_37"
    INDEX 01 00:55:49
  TRACK 38 AUDIO
    TITLE "P1Q_t_1149-1158_38"
    INDEX 01 00:56:58
  TRACK 39 AUDIO
    TITLE "P1Q_t_1149-1158_39"
    INDEX 01 00:57:02
  TRACK 40 AUDIO
    TITLE "P1Q_t_1149-1158_40"
    INDEX 01 01:00:16
  TRACK 41 AUDIO
    TITLE "P1Q_t_1149-1158_41"
    INDEX 01 01:00:36
  TRACK 42 AUDIO
    TITLE "P1Q_t_1149-1158_42"
    INDEX 01 01:04:24
  TRACK 43 AUDIO
    TITLE "P1Q_t_1149-1158_43"
    INDEX 01 01:04:71
  TRACK 44 AUDIO
    TITLE "P1Q_t_1149-1158_44"
    INDEX 01 01:06:15
  TRACK 45 AUDIO
    TITLE "P1Q_t_1149-1158_45"
    INDEX 01 01:06:39
  TRACK 46 AUDIO
    TITLE "P1Q_t_1149-1158_46"
    INDEX 01 01:07:48
  TRACK 47 AUDIO
    TITLE "P1Q_t_1149-1158_47"
    INDEX 01 01:07:65
  TRACK 48 AUDIO
    TITLE "P1Q_t_1149-1158_48"
    INDEX 01 01:12:00
  TRACK 49 AUDIO
    TITLE "P1Q_t_1149-1158_49"
    INDEX 01 01:12:47
  TRACK 50 AUDIO
    TITLE "P1Q_t_1149-1158_50"
    INDEX 01 01:13:70
  TRACK 51 AUDIO
    TITLE "P1Q_t_1149-1158_51"
    INDEX 01 01:14:15
  TRACK 52 AUDIO
    TITLE "P1Q_t_1149-1158_52"
    INDEX 01 01:16:70
  TRACK 53 AUDIO
    TITLE "P1Q_t_1149-1158_53"
    INDEX 01 01:17:15
  TRACK 54 AUDIO
    TITLE "P1Q_t_1149-1158_54"
    INDEX 01 01:21:40
  TRACK 55 AUDIO
    TITLE "P1Q_t_1149-1158_55"
    INDEX 01 01:22:08
  TRACK 56 AUDIO
    TITLE "P1Q_t_1149-1158_56"
    INDEX 01 01:23:16
  TRACK 57 AUDIO
    TITLE "P1Q_t_1149-1158_57"
    INDEX 01 01:23:37
  TRACK 58 AUDIO
    TITLE "P1Q_t_1149-1158_58"
    INDEX 01 01:24:40
  TRACK 59 AUDIO
    TITLE "P1Q_t_1149-1158_59"
    INDEX 01 01:24:60
  TRACK 60 AUDIO
    TITLE "P1Q_t_1149-1158_60"
    INDEX 01 01:29:22
